<svg xmlns="http://www.w3.org/2000/svg" width="31.969" height="55.031" viewBox="0 0 31.969 55.031">
  <path id="Queen" class="cls-1" fill="#ffffff" d="M127.93,91.245v-6.7h-3.2v-14.4h3.2V61.372h-1.167c0.137-.124.267-0.25,0.383-0.376a9.036,9.036,0,0,0,2.639-6.893,5.2,5.2,0,0,0-2.166-3.762,6.855,6.855,0,0,0-5.736-.74,6.062,6.062,0,0,0-11.776,0,6.851,6.851,0,0,0-5.737.741A5.2,5.2,0,0,0,102.2,54.1a9.043,9.043,0,0,0,2.639,6.893c0.108,0.117.238,0.245,0.378,0.375h-1.16v8.769h3.2v14.4h-3.2v6.7h-4.046v8.769H131.98V91.244h-4.05Zm-1.942-38.63a2.411,2.411,0,0,1,1,1.792,6.416,6.416,0,0,1-1.928,4.719,13.961,13.961,0,0,1-3.3,2.245h-3.879a5.489,5.489,0,0,0,.388-1.464,7.662,7.662,0,0,0-.676-3.894,9.3,9.3,0,0,1,.861-1.131C120.735,52.387,124.186,51.349,125.988,52.615ZM116,47.771a3.534,3.534,0,0,1,3.281,2.913,12.3,12.3,0,0,0-2.912,2.332c-0.133.145-.237,0.3-0.361,0.449-0.125-.15-0.242-0.3-0.378-0.45a12.139,12.139,0,0,0-2.911-2.332A3.532,3.532,0,0,1,116,47.771Zm-9.061,11.358A6.413,6.413,0,0,1,105,54.409a2.413,2.413,0,0,1,1-1.792c1.8-1.266,5.252-.229,7.533,2.269a6.4,6.4,0,0,1,1.93,4.72,2.41,2.41,0,0,1-.972,1.768h-4.671A19.377,19.377,0,0,1,106.934,59.129Zm-0.058,5.031h2.134c0.022,0.011.046,0.028,0.064,0.037l0.024-.037h16.017v3.192H106.877V64.16h0Zm15.037,5.982V84.435H110.075V70.142h11.838ZM106.876,87.332h18.237v3.194H106.876V87.332h0Zm22.284,9.894H102.83V94.033h26.33v3.192Z" transform="translate(-100 -44.969)"/>
</svg>
